# xmcd CD database file
#
# Track frame offsets:
#	150
#	12770
#	27257
#	44495
#	59177
#	70760
#	84165
#	97015
#	112955
#	130007
#	148510
#	168507
#	183277
#	198797
#	214927
#
# Disc length: 3118 seconds
#
# Revision: 1
# Processed by: cddbd v1.5.2PL0 Copyright (c) Steve Scherf et al.
# Submitted via: CDex 1.51
#
DISCID=cd0c2c0f
DTITLE=Rock City Angels - Young Man's Blues
DYEAR=1988
DGENRE=Rock
TTITLE0=Deep Inside My Heart
TTITLE1=Hard To Hold
TTITLE2=Mary
TTITLE3=Our Little Secret
TTITLE4=Damned Don't Cry
TTITLE5=Wild Tiger
TTITLE6=These Arms Of Mine
TTITLE7=Rumblefish
TTITLE8=Boy From Hell's Kitchen
TTITLE9=Liza Jo
TTITLE10=Beyond Babylon
TTITLE11=Hush Child
TTITLE12=Ya Gotta Swear
TTITLE13=Rough 'N' Tumble
TTITLE14=South Of The Border
EXTD=YEAR: 1988
EXTT0=
EXTT1=
EXTT2=
EXTT3=
EXTT4=
EXTT5=
EXTT6=
EXTT7=
EXTT8=
EXTT9=
EXTT10=
EXTT11=
EXTT12=
EXTT13=
EXTT14=
PLAYORDER=
